<?xml version="1.0" encoding="utf-8"?>
<!-- Generator: Adobe Illustrator 24.0.1, SVG Export Plug-In . SVG Version: 6.00 Build 0)  -->
<svg version="1.1" id="Layer_1" xmlns="http://www.w3.org/2000/svg" xmlns:xlink="http://www.w3.org/1999/xlink" x="0px" y="0px"
	 viewBox="0 0 512 512" style="enable-background:new 0 0 512 512;" xml:space="preserve">
<style type="text/css">
	.st0{fill:#3C3C3B;}
	.st1{fill:#D84833;}
	.st2{fill:#F6F6F6;}
	.st3{fill:#98D4DF;}
</style>
<g>
	<path class="st0" d="M256,40.38h196.02V197.2h-39.2l0,274.42H256v-78.41h-39.2l0,78.41H59.98V236.4v0
		C59.98,128.14,147.74,40.38,256,40.38z"/>
	<path class="st1" d="M216.8,236.4H256v-39.2h0C234.35,197.2,216.8,214.75,216.8,236.4L216.8,236.4z"/>
	<path class="st2" d="M177.59,236.4c0-43.3,35.1-78.41,78.41-78.41h0h156.81V79.59H256h0c-86.6,0-156.81,70.21-156.81,156.81v0
		v196.01h78.41v-78.41h156.81V275.6H177.59V236.4L177.59,236.4z"/>
	<rect x="295.2" y="157.99" class="st3" width="78.41" height="274.42"/>
</g>
</svg>
